HIERARCHY
ROOT hip
{
	OFFSET 0.000000 0.000000 0.000000 
	CHANNELS 6 Xposition Yposition Zposition Xrotation Zrotation Yrotation
	JOINT abdomen
	{
		OFFSET 0.000000 3.402643 0.000000 
		CHANNELS 3 Xrotation Zrotation Yrotation
		JOINT chest
		{
			OFFSET 0.000000 8.438565 -0.680529 
			CHANNELS 3 Xrotation Zrotation Yrotation
			JOINT neck
			{
				OFFSET 0.000000 10.207942 -0.272212 
				CHANNELS 3 Xrotation Zrotation Yrotation
				JOINT head
				{
					OFFSET 0.000000 3.130431 0.000000 
					CHANNELS 3 Xrotation Zrotation Yrotation
					End Site
					{
						OFFSET 0.000000 3.130435 0.000000 
					}
				}
			}
			JOINT lCollar
			{
				OFFSET 3.470700 6.669187 -0.816635 
				CHANNELS 3 Yrotation Zrotation Xrotation
				JOINT lShldr
				{
					OFFSET 3.198488 0.000000 0.000000 
					CHANNELS 3 Zrotation Yrotation Xrotation
					JOINT lForeArm
					{
						OFFSET 10.139888 0.000000 0.000000 
						CHANNELS 3 Yrotation Zrotation Xrotation
						JOINT lHand
						{
							OFFSET 8.370511 0.000000 0.000000 
							CHANNELS 3 Zrotation Yrotation Xrotation
							End Site
							{
								OFFSET 4.083176 0.000000 0.000000 
							}
						}
					}
				}
			}
			JOINT rCollar
			{
				OFFSET -3.470700 6.669187 -0.816635 
				CHANNELS 3 Yrotation Zrotation Xrotation
				JOINT rShldr
				{
					OFFSET -3.198488 0.000000 0.000000 
					CHANNELS 3 Zrotation Yrotation Xrotation
					JOINT rForeArm
					{
						OFFSET -10.139888 0.000000 0.000000 
						CHANNELS 3 Yrotation Zrotation Xrotation
						JOINT rHand
						{
							OFFSET -8.370511 0.000000 0.000000 
							CHANNELS 3 Zrotation Yrotation Xrotation
							End Site
							{
								OFFSET -4.083176 0.000000 0.000000 
							}
						}
					}
				}
			}
		}
	}
	JOINT lThigh
	{
		OFFSET 5.308129 -1.633274 1.361059 
		CHANNELS 3 Xrotation Zrotation Yrotation
		JOINT lShin
		{
			OFFSET -2.041588 -20.007561 0.000000 
			CHANNELS 3 Xrotation Zrotation Yrotation
			JOINT lFoot
			{
				OFFSET 0.000000 -19.190928 -1.224953 
				CHANNELS 3 Xrotation Yrotation Zrotation
				End Site
				{
					OFFSET 0.000000 -2.449906 4.627600 
				}
			}
		}
	}
	JOINT rThigh
	{
		OFFSET -5.308129 -1.633274 1.361059 
		CHANNELS 3 Xrotation Zrotation Yrotation
		JOINT rShin
		{
			OFFSET 2.041588 -20.007561 0.000000 
			CHANNELS 3 Xrotation Zrotation Yrotation
			JOINT rFoot
			{
				OFFSET 0.000000 -19.190928 -1.224953 
				CHANNELS 3 Xrotation Yrotation Zrotation
				End Site
				{
					OFFSET 0.000000 -2.449906 4.627600 
				}
			}
		}
	}
}
MOTION
Frames: 20
Frame Time: 0.016667
-0.430856 48.167999 0.101051 -16.099527 -4.119322 8.047857 0.000000 0.000000 0.000000 19.191980 8.375446 -1.657261 22.248446 -0.263568 1.611311 -17.314604 -7.078022 3.326138 -9.976593 -6.232169 18.353767 -58.869614 -16.819950 40.288311 -16.550339 9.354139 4.695082 -14.425386 -10.032487 -4.588038 3.068354 18.489868 16.611540 51.485744 13.443303 58.914883 12.105857 -13.055044 7.010724 -0.013823 5.484044 -19.108793 6.123107 20.764124 -14.070667 24.880835 -0.553679 -1.800291 -8.925932 7.084484 -14.985393 14.870065 9.978270 -1.315937 19.237118 -2.109335 -0.273126 -14.067082 -3.831039 -2.272559 
-0.433482 48.167912 0.097670 -16.099527 -4.119322 8.047857 0.000000 0.000000 0.000000 19.180225 8.297231 -1.686260 22.337955 -0.195227 1.699209 -17.231153 -6.989721 3.403677 -9.976593 -6.232169 18.353767 -58.768539 -16.801289 40.116337 -16.720627 9.364369 4.711286 -14.562989 -9.821664 -4.204386 3.068354 18.489868 16.611540 51.509007 13.355268 59.022221 12.187612 -13.063134 7.020424 -0.279498 5.471991 -19.024776 6.123107 20.764122 -14.070666 24.880835 -0.553678 -1.800291 -8.997207 7.207355 -15.013859 14.801687 10.066161 -1.221325 19.237787 -2.102984 -0.272129 -14.102112 -3.943847 -2.421579 
-0.435991 48.167542 0.093399 -16.099527 -4.119322 8.047857 0.000000 0.000000 0.000000 19.180225 8.297231 -1.686260 22.418221 -0.117131 1.787106 -17.146280 -6.901491 3.471542 -9.976593 -6.232169 18.353767 -58.793686 -16.713911 40.209675 -16.720627 9.364369 4.711286 -14.552394 -10.004546 -4.135552 3.068354 18.489868 16.611540 51.530354 13.268824 59.107677 12.187612 -13.063134 7.020424 -0.468206 5.624319 -19.047192 6.132813 20.769939 -13.979362 24.780264 -0.538289 -1.880340 -8.996026 7.218788 -15.008325 14.791753 10.066051 -1.134421 19.229477 -2.092366 -0.280731 -14.100265 -4.030541 -2.411952 
-0.438500 48.167164 0.089130 -16.099527 -4.119322 8.047857 0.000000 0.000000 0.000000 19.180225 8.297231 -1.686260 22.507849 -0.058562 1.874999 -17.052597 -6.813193 3.550280 -9.976593 -6.232169 18.353767 -58.825012 -16.628538 40.298103 -16.720627 9.364369 4.711286 -14.530488 -10.189208 -4.079515 3.068354 18.489868 16.611540 51.557987 13.194534 59.193508 12.187612 -13.063134 7.020424 -0.661250 5.785663 -19.081022 6.132897 20.768963 -13.889568 24.718264 -0.528395 -1.972987 -9.034801 7.221057 -15.017457 14.792967 10.066940 -1.045779 19.229866 -2.092392 -0.290465 -14.082541 -4.118123 -2.359348 
-0.440739 48.166615 0.084950 -16.099527 -4.119322 8.047857 0.000000 0.000000 0.000000 19.180225 8.297231 -1.686260 22.588564 0.019520 1.972660 -16.964273 -6.812611 3.629010 -9.976593 -6.232169 18.353767 -58.831875 -16.641285 40.393108 -16.630232 9.354794 4.702513 -14.419379 -10.346806 -4.183420 3.068354 18.489868 16.611540 51.565334 13.188022 59.283001 12.105857 -13.055044 7.010724 -0.687033 6.054526 -19.029478 6.132897 20.768963 -13.889568 24.785015 -0.450420 -2.038110 -8.998004 7.202090 -15.016275 14.792971 10.066939 -1.045779 19.229866 -2.092392 -0.290465 -14.082541 -4.118123 -2.359348 
-0.442977 48.166061 0.080792 -16.099527 -4.119322 8.047857 0.000000 0.000000 0.000000 19.180225 8.297231 -1.686260 22.669191 0.087833 2.070325 -16.866182 -6.812016 3.707739 -9.976593 -6.232169 18.353767 -58.836002 -16.640768 40.482830 -16.551882 9.351357 4.704319 -14.308345 -10.494658 -4.290350 3.068354 18.489868 16.611540 51.574139 13.202106 59.370605 12.015689 -13.057776 7.003438 -0.712352 6.323434 -18.976765 6.132896 20.768963 -13.889568 24.860683 -0.362493 -2.121073 -8.997515 7.210113 -15.001760 14.792967 10.066941 -1.045779 19.229866 -2.092392 -0.290465 -14.082541 -4.118122 -2.359347 
-0.445003 48.165054 0.078031 -16.102962 -4.120210 7.959498 0.000000 0.000000 0.000000 19.180225 8.297231 -1.686260 22.756807 0.078071 2.128918 -16.691589 -6.723862 3.765926 -9.977757 -6.323111 18.345644 -58.844982 -16.650656 40.565620 -16.551882 9.351357 4.704319 -14.194188 -10.653946 -4.406268 3.063275 18.398155 16.615381 51.589214 13.114414 59.372425 11.922076 -13.052804 6.984614 -0.819178 6.592980 -18.836250 6.132895 20.768965 -13.889567 24.860683 -0.362494 -2.121073 -9.073240 7.235615 -14.999211 14.715108 10.164706 -1.039505 19.305609 -2.177784 -0.213862 -14.029892 -4.042892 -2.196322 
-0.447027 48.164043 0.075290 -16.096634 -4.121088 7.871838 0.000000 0.000000 0.000000 19.180225 8.297231 -1.686260 22.834641 0.068310 2.187510 -16.517948 -6.635638 3.833823 -9.973804 -6.400022 18.327509 -58.855602 -16.652205 40.653210 -16.551882 9.351357 4.704319 -14.081137 -10.810463 -4.513384 3.064703 18.318466 16.618998 51.607971 13.025973 59.370499 11.829677 -13.057470 6.967968 -0.927866 6.872348 -18.697416 6.132895 20.768963 -13.889568 24.860683 -0.362490 -2.121072 -9.156994 7.272377 -15.003071 14.636477 10.262002 -1.033425 19.393194 -2.246089 -0.144561 -13.983418 -3.958277 -2.083774 
-0.448738 48.162487 0.075141 -16.008038 -4.121185 7.862098 0.000000 0.000000 0.000000 19.183277 8.297595 -1.597881 22.915585 0.136611 2.275408 -16.521000 -6.547341 3.911438 -9.973804 -6.400022 18.327509 -58.778374 -16.645170 40.744656 -16.551882 9.351357 4.704319 -13.986924 -10.871035 -4.631438 3.064703 18.318466 16.618998 51.695011 12.944818 59.275757 11.829677 -13.057470 6.967968 -0.926921 6.998222 -18.354031 6.132896 20.768965 -13.889567 24.860683 -0.362493 -2.121073 -9.158381 7.264936 -14.995902 14.636479 10.262006 -1.033425 19.393194 -2.246087 -0.144561 -13.980814 -3.970165 -2.079150 
-0.450450 48.160931 0.074991 -15.919443 -4.121283 7.852358 0.000000 0.000000 0.000000 19.186333 8.297938 -1.509501 23.006538 0.204902 2.373067 -16.515146 -6.458971 3.999874 -9.973804 -6.400022 18.327509 -58.709187 -16.632090 40.838989 -16.551882 9.351357 4.704319 -13.881787 -10.939877 -4.750828 3.064703 18.318466 16.618998 51.778877 12.864740 59.186882 11.829677 -13.057470 6.967968 -0.928762 7.133452 -18.022587 6.132897 20.768965 -13.889567 24.860683 -0.362496 -2.121073 -9.158062 7.263134 -15.007515 14.636477 10.262006 -1.033425 19.393194 -2.246087 -0.144561 -13.981298 -3.972518 -2.069426 
-0.451415 48.158947 0.077633 -15.927892 -4.208841 7.804369 0.000000 0.000000 0.000000 19.186333 8.297938 -1.509501 23.000021 0.273185 2.461003 -16.428720 -6.370759 4.067807 -10.002142 -6.390898 18.239220 -58.716946 -16.639971 40.950619 -16.551882 9.351357 4.704319 -13.869098 -11.031529 -4.757954 3.081086 18.311611 16.535984 51.845215 12.878912 58.999043 11.829677 -13.057470 6.967968 -0.923508 7.159586 -17.759108 6.034832 20.795044 -14.080097 24.885143 -0.451062 -1.974508 -9.083482 7.259918 -14.922901 14.636477 10.262002 -1.033425 19.393194 -2.246086 -0.144561 -14.027707 -4.045542 -2.121105 
-0.452379 48.156960 0.080255 -15.935458 -4.296517 7.745935 0.000000 0.000000 0.000000 19.186333 8.297938 -1.509501 23.003855 0.351217 2.539135 -16.343157 -6.282477 4.145460 -10.023139 -6.371084 18.161085 -58.724922 -16.647911 41.062176 -16.551882 9.351357 4.704319 -13.867064 -11.114584 -4.767601 3.091233 18.301571 16.443964 51.906044 12.881445 58.815205 11.829677 -13.057470 6.967968 -0.920990 7.195133 -17.496649 5.956926 20.834442 -14.263983 24.890697 -0.548504 -1.799690 -8.993691 7.220685 -14.846416 14.636477 10.262009 -1.033425 19.393194 -2.246086 -0.144561 -14.097384 -4.139917 -2.184948 
-0.452282 48.154564 0.084422 -15.935458 -4.296517 7.745935 0.000000 0.000000 0.000000 19.097013 8.297902 -1.519165 23.081625 0.331682 2.627023 -16.254011 -6.281133 4.312610 -10.023139 -6.371084 18.161085 -58.737514 -16.567118 41.060360 -16.551882 9.351357 4.704319 -13.754258 -11.186938 -4.866354 3.091233 18.301571 16.443964 51.893871 12.876377 58.724998 11.829677 -13.057470 6.967968 -0.818988 7.140801 -17.310659 5.957316 20.916492 -14.171887 24.967066 -0.460242 -1.872863 -8.993122 7.184859 -15.154612 14.636477 10.262009 -1.033425 19.393194 -2.246086 -0.144561 -14.097384 -4.139917 -2.184948 
-0.452184 48.152168 0.088570 -15.935458 -4.296517 7.745935 0.000000 0.000000 0.000000 19.007437 8.307626 -1.528827 23.169046 0.312152 2.705144 -16.164860 -6.279737 4.479760 -10.023139 -6.371084 18.161085 -58.751579 -16.477978 41.066154 -16.551882 9.351357 4.704319 -13.651130 -11.259814 -4.965342 3.091233 18.301571 16.443964 51.889565 12.875887 58.643341 11.829677 -13.057470 6.967968 -0.717352 7.085901 -17.126038 5.957170 21.009388 -14.081467 25.062935 -0.377991 -1.938232 -8.972880 7.134968 -15.447940 14.636477 10.262009 -1.033425 19.393194 -2.246088 -0.144561 -14.097383 -4.139918 -2.184949 
-0.451027 48.149086 0.092238 -15.935458 -4.296517 7.745935 0.000000 0.000000 0.000000 19.007437 8.307626 -1.528827 23.250643 0.360868 2.890691 -15.988530 -6.191617 4.538009 -10.023139 -6.371084 18.161085 -58.762890 -16.479853 41.153526 -16.551882 9.351357 4.704319 -13.634091 -11.335338 -5.066470 3.091233 18.301571 16.443964 51.889565 12.875887 58.643341 11.738274 -13.050396 6.958405 -0.601086 6.924253 -17.000084 5.957168 21.009390 -14.081467 25.062935 -0.377990 -1.938232 -8.966062 7.216938 -15.398069 14.624219 10.250407 -0.860237 19.393656 -2.181025 -0.212624 -14.085009 -4.119235 -2.250328 
-0.449870 48.146008 0.095908 -15.935458 -4.296517 7.745935 0.000000 0.000000 0.000000 19.007437 8.307626 -1.528827 23.332487 0.409569 3.066537 -15.813849 -6.113153 4.605976 -10.023139 -6.371084 18.161085 -58.774323 -16.481745 41.240845 -16.551882 9.351357 4.704319 -13.618725 -11.408537 -5.160202 3.091233 18.301571 16.443964 51.889565 12.875887 58.643341 11.656507 -13.042153 6.950810 -0.488405 6.771492 -16.875475 5.957170 21.009388 -14.081467 25.062935 -0.377992 -1.938232 -8.967876 7.297939 -15.360353 14.616430 10.232317 -0.688435 19.395700 -2.098811 -0.278318 -14.072832 -4.090116 -2.333154 
-0.447822 48.142422 0.098291 -15.937316 -4.287729 7.657564 0.000000 0.000000 0.000000 19.007437 8.307626 -1.528827 23.507378 0.370496 3.252075 -15.721800 -6.199289 4.773113 -10.023139 -6.371084 18.161085 -58.785873 -16.483650 41.328125 -16.551882 9.351357 4.704319 -13.517759 -11.489846 -5.175807 3.091233 18.301571 16.443964 51.987419 12.894053 58.723774 11.656507 -13.042153 6.950810 -0.479711 6.582088 -16.947041 5.957168 21.009390 -14.081467 25.140648 -0.378055 -1.951314 -9.045663 7.306532 -15.355411 14.616430 10.232323 -0.688434 19.395700 -2.098814 -0.278318 -14.081676 -4.098152 -2.326217 
-0.445773 48.138844 0.100675 -15.930726 -4.288608 7.569924 0.000000 0.000000 0.000000 19.007437 8.307626 -1.528827 23.672140 0.331441 3.418081 -15.630258 -6.285330 4.941313 -10.023139 -6.371084 18.161085 -58.789906 -16.492035 41.415359 -16.551882 9.351357 4.704319 -13.416710 -11.571131 -5.193634 3.091233 18.301571 16.443964 52.077602 12.907510 58.797794 11.656507 -13.042153 6.950810 -0.461160 6.395571 -17.017458 5.957168 21.009390 -14.081467 25.228485 -0.377935 -1.955060 -9.142598 7.319670 -15.358532 14.616430 10.232321 -0.688434 19.395700 -2.098812 -0.278318 -14.065541 -4.111684 -2.344022 
-0.442691 48.135994 0.103225 -16.022154 -4.365656 7.609603 0.000000 0.000000 0.000000 19.007437 8.307626 -1.528827 23.850744 0.204675 3.593797 -15.452150 -6.283827 5.098755 -10.023139 -6.371084 18.161085 -58.781906 -16.581385 41.501556 -16.459940 9.344514 4.687860 -13.227046 -11.630447 -5.290706 3.091233 18.301571 16.443964 52.066826 12.986685 58.796707 11.564095 -13.046682 6.934090 -0.375590 6.169772 -17.519115 6.035089 20.982475 -14.069480 25.348505 -0.431410 -1.873877 -9.136280 7.342836 -15.423723 14.624219 10.250410 -0.860237 19.473372 -2.170394 -0.209727 -14.143916 -3.939890 -2.158222 
-0.439607 48.133148 0.105753 -16.114237 -4.452467 7.640307 0.000000 0.000000 0.000000 19.007437 8.307626 -1.528827 24.029217 0.087700 3.769542 -15.274043 -6.282278 5.256196 -10.023139 -6.371084 18.161085 -58.774155 -16.670834 41.587631 -16.370354 9.344594 4.680617 -13.036117 -11.682043 -5.401875 3.091233 18.301571 16.443964 52.049450 13.081920 58.787525 11.482323 -13.038375 6.924251 -0.273742 5.939735 -18.020895 6.113869 20.954939 -14.050814 25.448698 -0.475508 -1.799731 -9.153708 7.386085 -15.543422 14.636477 10.262002 -1.033425 19.570036 -2.246162 -0.141172 -14.220007 -3.762801 -1.969321 
